# AST/ASF file generated using VICON BodyLanguage
# -----------------------------------------------
:version 1.10
:name VICON
:units
  mass 1.0
  length 0.45
  angle deg
:documentation
   .ast/.asf automatically generated from VICON data using
   VICON BodyBuilder and BodyLanguage model FoxedUp or BRILLIANT.MOD
:root
   order TX TY TZ RX RY RZ
   axis XYZ
   position 0 0 0  
   orientation 0 0 0 
:bonedata
  begin
     id 1 
     name lhipjoint
     direction 0.528046 -0.759594 0.379717 
     length 2.39752 
     axis 0 0 0  XYZ
  end
  begin
     id 2 
     name lfemur
     direction 0.34202 -0.939693 0  
     length 7.31175  
     axis 0 0 20  XYZ
    dof rx ry rz
    limits (-160.0 20.0)
           (-70.0 70.0)
           (-60.0 70.0)
  end
  begin
     id 3 
     name ltibia
     direction 0.34202 -0.939693 0   
     length 7.52482   
     axis 0 0 20   XYZ
    dof rx
    limits (-10.0 170.0)
  end
  begin
     id 4 
     name lfoot
     direction 0.0675379 -0.185559 0.980309   
     length 2.00961   
     axis -90 7.62852e-016 20   XYZ
    dof rx rz
    limits (-45.0 90.0)
           (-70.0 20.0)
  end
  begin
     id 5 
     name ltoes
     direction 1.5352e-011 -4.22286e-011 1   
     length 1.01383   
     axis -90 7.62852e-016 20   XYZ
    dof rx
    limits (-90.0 20.0)
  end
  begin
     id 6 
     name rhipjoint
     direction -0.510274 -0.769251 0.384544   
     length 2.36742  
     axis 0 0 0  XYZ 
  end
  begin
     id 7 
     name rfemur
     direction -0.34202 -0.939693 0   
     length 7.45325   
     axis 0 0 -20   XYZ
    dof rx ry rz
    limits (-160.0 20.0)
           (-70.0 70.0)
           (-70.0 60.0)
  end
  begin
     id 8 
     name rtibia
     direction -0.34202 -0.939693 0   
     length 7.49587   
     axis 0 0 -20   XYZ
    dof rx
    limits (-10.0 170.0)
 end
 begin
     id 9 
     name rfoot
     direction -0.106475 -0.292536 0.950308   
     length 2.20898  
     axis -90 -7.62852e-016 -20   XYZ
    dof rx rz
    limits (-45.0 90.0)
           (-20.0 70.0)
  end
  begin
     id 10 
     name rtoes
     direction -1.53597e-011 -4.22023e-011 1   
     length 1.10065   
     axis -90 -7.62852e-016 -20   XYZ
    dof rx
    limits (-90.0 20.0)
  end
  begin
     id 11 
     name lowerback
     direction 0.0260024 0.998026 -0.0571652   
     length 2.11214   
     axis 0 0 0   XYZ
    dof rx ry rz
    limits (-20.0 45.0)
           (-30.0 30.0)
           (-30.0 30.0)
  end
  begin
     id 12 
     name upperback
     direction 0.0216202 0.999542 -0.0211766   
     length 2.11689   
     axis 0 0 0   XYZ
    dof rx ry rz
    limits (-20.0 45.0)
           (-30.0 30.0)
           (-30.0 30.0)
  end
  begin
     id 13 
     name thorax
     direction 0.00883312 0.999944 0.00589057   
     length 2.11821   
     axis 0 0 0   XYZ
    dof rx ry rz
    limits (-20.0 45.0)
           (-30.0 30.0)
           (-30.0 30.0)
  end
  begin
     id 14 
     name lowerneck
     direction -0.059386 0.994433 0.0870401   
     length 1.81176   
     axis 0 0 0   XYZ
    dof rx ry rz
    limits (-20.0 45.0)
           (-30.0 30.0)
           (-30.0 30.0)
  end
  begin
     id 15 
     name upperneck
     direction 0.0506457 0.97328 -0.223967   
     length 1.82382   
     axis 0 0 0   XYZ
    dof rx ry rz
    limits (-20.0 45.0)
           (-30.0 30.0)
           (-30.0 30.0)
  end
  begin
     id 16
     name head
     direction 0.0205902 0.996147 -0.0852487  
     length 1.84805  
     axis 0 0 0   XYZ
    dof rx ry rz
    limits (-20.0 45.0)
           (-30.0 30.0)
           (-30.0 30.0)
  end
  begin
     id 17 
     name lclavicle
     direction 0.949493 0.303881 -0.0782325  
     length 3.60584  
     axis 0 0 0   XYZ
    dof ry rz
    limits (-20.0 10.0)
           (0.0 20.0)
  end
  begin
     id 18 
     name lhumerus
     direction 1 -4.48965e-011 1.48782e-027   
     length 4.95681   
     axis 180 -30 -90   XYZ
    dof rx ry rz
    limits (-60.0 90.0)
           (-90.0 90.0)
           (-90.0 90.0)
  end
  begin
     id 19
     name lradius
     direction 1 -4.48952e-011 2.06528e-027   
     length 3.40915   
     axis 180 -30 -90   XYZ
    dof rx
    limits (-10.0 170.0)
  end
  begin
     id 20
     name lwrist
     direction 1 -4.48964e-011 1.28021e-027   
     length 1.70457   
     axis -1.61767e-015 90 90   XYZ
    dof ry
    limits (-180.0 0.0)
 end
  begin
     id 21 
     name lhand
     direction 1 -4.49094e-011 2.54887e-027   
     length 0.616403   
     axis -1.63363e-015 90 90   XYZ
    dof rx rz
    limits (-90.0 90.0)
           (-45.0 45.0)
  end
  begin
     id 22 
     name lfingers
     direction 1 -4.49002e-011 5.11407e-027   
     length 0.49696   
     axis -3.26723e-015 90 90   XYZ
    dof rx
    limits (0.0 90.0)
  end
  begin
     id 23
     name lthumb
     direction 0.707107 -6.34998e-011 0.707107   
     length 0.713539   
     axis -90 45 -2.25915e-014   XYZ
    dof rx rz
    limits (-45.0 45.0)
           (-45.0 45.0)
  end
  begin
     id 24 
     name rclavicle
     direction -0.937751 0.334612 -0.0930482   
     length 3.46287  
     axis 0 0 0   XYZ 
    dof ry rz
    limits (-10.0 20.0)
           (-20.0 0.0)
  end
  begin
     id 25 
     name rhumerus
     direction -1 -4.48962e-011 3.59972e-027  
     length 5.352   
     axis 180 30 90   XYZ
    dof rx ry rz
    limits (-90.0 60.0)
           (-90.0 90.0)
           (-90.0 90.0)
  end
  begin
     id 26 
     name rradius
     direction -1 -4.48987e-011 -3.76925e-027   
     length 3.43721   
     axis 180 30 90   XYZ
    dof rx
    limits (-10.0 170.0)
  end
  begin
     id 27 
     name rwrist
     direction -1 -4.48943e-011 1.28112e-027   
     length 1.7186   
     axis -1.61767e-015 -90 -90   XYZ
    dof ry
    limits (-180.0 0.0)
  end
  begin
     id 28
     name rhand
     direction -1 -4.49027e-011 2.55483e-027   
     length 0.72009   
     axis -1.63363e-015 -90 -90   XYZ
    dof rx rz
    limits (-90.0 90.0)
           (-45.0 45.0)
  end
  begin
     id 29
     name rfingers
     direction -1 -4.48827e-011 5.14506e-027   
     length 0.580555   
     axis -3.26723e-015 -90 -90   XYZ
    dof rx
    limits (0.0 90.0)
  end
  begin
     id 30
     name rthumb
     direction -0.707107 -6.34936e-011 0.707107   
     length 0.833564   
     axis -90 -45 2.25915e-014   XYZ
    dof rx rz
    limits (-45.0 45.0)
           (-45.0 45.0)
  end
:hierarchy
  begin
    root lhipjoint rhipjoint lowerback
    lhipjoint lfemur
    lfemur ltibia
    ltibia lfoot
    lfoot ltoes
    rhipjoint rfemur
    rfemur rtibia
    rtibia rfoot
    rfoot rtoes
    lowerback upperback
    upperback thorax
    thorax lowerneck lclavicle rclavicle
    lowerneck upperneck
    upperneck head
    lclavicle lhumerus
    lhumerus lradius
    lradius lwrist
    lwrist lhand lthumb
    lhand lfingers
    rclavicle rhumerus
    rhumerus rradius
    rradius rwrist
    rwrist rhand rthumb
    rhand rfingers
  end

#!OML:ASF H:\Terrain\Patient Classification 1\Terrain2\Thursday\justin.ASF
:FULLY-SPECIFIED
:DEGREES
942
root 18.8289 20.2584 -12.5411 175.669 -2.37427 -181.346
lowerback 6.21884 -1.14636 -2.79
upperback 3.76093 -1.95177 2.15304
thorax 0.559669 -1.16971 3.8943
lowerneck -12.2776 -5.59656 -10.2282
upperneck 39.8573 -1.68252 3.17317
head 16.7235 -0.224165 3.42608
rclavicle -1.98785e-015 -1.19271e-014
rhumerus -36.8328 -10.1805 -78.7733
rradius 27.1531
rwrist -9.53296
rhand -18.3819 11.1214
rfingers 7.12502
rthumb 7.90179 -18.711
lclavicle -1.98785e-015 -1.19271e-014
lhumerus -29.844 2.13419 83.158
lradius 41.324
lwrist 7.31495
lhand -17.0882 23.9448
lfingers 7.12502
lthumb 9.15023 53.7263
rfemur -26.3273 -4.35193 16.7108
rtibia 28.4467
rfoot 15.3972 -3.00831
rtoes 8.74637
lfemur 3.56408 -4.93456 -23.751
ltibia 29.8991
lfoot -17.1225 -12.9228
ltoes 18.2614
943
root 18.8512 20.2042 -12.6588 175.599 -2.63147 -181.454
lowerback 6.13216 -1.16186 -2.88846
upperback 3.79065 -1.97582 2.15334
thorax 0.644242 -1.18561 3.94805
lowerneck -12.0505 -5.65611 -10.2626
upperneck 39.6943 -1.7728 3.08174
head 16.588 -0.277186 3.36502
rclavicle -8.15017e-015 -4.77083e-015
rhumerus -36.8839 -9.67688 -78.957
rradius 27.365
rwrist -9.84847
rhand -18.3515 10.8082
rfingers 7.12502
rthumb 7.93104 -19.023
lclavicle -8.15017e-015 -4.77083e-015
lhumerus -29.7506 1.86327 83.2734
lradius 41.5926
lwrist 7.68541
lhand -17.5193 23.9542
lfingers 7.12502
lthumb 8.73424 53.7535
rfemur -25.8349 -4.33548 16.4857
rtibia 27.3096
rfoot 16.1108 -3.36957
rtoes 9.97309
lfemur 3.5207 -5.02507 -23.8417
ltibia 31.1112
lfoot -18.124 -12.6178
ltoes 12.4289
944
root 18.8772 20.146 -12.7743 175.499 -2.97326 -181.539
lowerback 6.10528 -1.18467 -3.00305
upperback 3.83468 -2.01388 2.14946
thorax 0.712254 -1.20978 4.00887
lowerneck -11.7922 -5.74961 -10.3901
upperneck 39.5245 -1.9387 3.10642
head 16.4536 -0.36046 3.35992
rclavicle -4.57205e-015 3.10104e-014
rhumerus -36.9045 -9.43574 -79.0762
rradius 27.5736
rwrist -9.86927
rhand -18.457 10.7896
rfingers 7.12502
rthumb 7.82923 -19.0454
lclavicle -4.57205e-015 3.10104e-014
lhumerus -29.5844 1.41503 83.4034
lradius 41.7129
lwrist 8.1618
lhand -16.7751 24.7588
lfingers 7.12502
lthumb 9.45233 54.5268
rfemur -25.3611 -4.41656 16.3199
rtibia 26.3843
rfoot 16.8218 -3.74359
rtoes 10.8864
lfemur 3.46102 -5.16695 -23.8243
ltibia 32.3075
lfoot -18.7369 -12.7634
ltoes 8.34043
945
root 18.9037 20.0912 -12.892 175.338 -3.25198 -181.307
lowerback 6.18024 -1.1554 -2.75089
upperback 3.84985 -1.96995 2.22625
thorax 0.675988 -1.18634 3.94613
lowerneck -11.6418 -5.91393 -10.6244
upperneck 39.5138 -2.18258 3.26444
head 16.4467 -0.468374 3.43157
rclavicle 1.28216e-014 -1.59028e-015
rhumerus -36.9194 -9.42096 -79.0627
rradius 27.7098
rwrist -9.58449
rhand -18.5118 11.0246
rfingers 7.12502
rthumb 7.77635 -18.8124
lclavicle 1.28216e-014 -1.59028e-015
lhumerus -29.5881 1.09162 83.5554
lradius 42.0804
lwrist 7.99144
lhand -16.0221 25.2175
lfingers 7.12502
lthumb 10.1788 54.9513
rfemur -24.8886 -4.1012 16.4242
rtibia 25.6712
rfoot 17.3932 -4.62977
rtoes 12.0217
lfemur 3.42474 -5.51322 -23.4801
ltibia 33.509
lfoot -18.9726 -13.2398
ltoes 9.25505
946
root 18.9249 20.0299 -13.0172 175.355 -3.52771 -181.486
lowerback 5.96619 -1.13303 -2.86647
upperback 3.86687 -1.93596 2.19729
thorax 0.812459 -1.17153 3.97254
lowerneck -11.6179 -6.11819 -11.0983
upperneck 39.6751 -2.45962 3.65877
head 16.5834 -0.591736 3.65802
rclavicle 1.2921e-015 -1.03368e-014
rhumerus -36.8871 -9.29332 -79.0631
rradius 27.8784
rwrist -9.37822
rhand -18.4149 11.1654
rfingers 7.12502
rthumb 7.86986 -18.6681
lclavicle 1.2921e-015 -1.03368e-014
lhumerus -29.6186 0.853406 83.7072
lradius 42.5793
lwrist 7.62582
lhand -16.3315 24.8228
lfingers 7.12502
lthumb 9.88036 54.5709
rfemur -24.5859 -4.31334 16.1684
rtibia 25.034
rfoot 18.0496 -4.9862
rtoes 12.7436
lfemur 3.25621 -5.77746 -23.6175
ltibia 34.7334
lfoot -19.293 -13.8072
ltoes 9.56408
